<?xml version="1.0" encoding="utf-8"?>
<!-- Generator: Adobe Illustrator 21.1.0, SVG Export Plug-In . SVG Version: 6.00 Build 0)  -->
<svg version="1.0" id="Layer_1" xmlns="http://www.w3.org/2000/svg" xmlns:xlink="http://www.w3.org/1999/xlink" x="0px" y="0px"
	 viewBox="0 0 158 110" enable-background="new 0 0 158 110" xml:space="preserve">
<path fill="#FFFFFF" d="M154.4,17.5c-1.8-6.7-7.1-12-13.9-13.8C128.2,0.5,79,0.5,79,0.5s-48.3-0.2-60.6,3c-6.8,1.8-13.3,7.3-15.1,14
	C0,29.7,0.3,55,0.3,55S0,80.3,3.3,92.5c1.8,6.7,8.4,12.2,15.1,14c12.3,3.3,60.6,3,60.6,3s48.3,0.2,60.6-3c6.8-1.8,13.1-7.3,14.9-14
	c3.3-12.1,3.3-37.5,3.3-37.5S157.7,29.7,154.4,17.5z M63.9,79.2V30.8L103.2,55L63.9,79.2z"/>
</svg>
