<?xml version="1.0"?>
<svg xmlns="http://www.w3.org/2000/svg" viewBox="0 0 32 32">
    <path d="M 3.71875 2.28125 L 2.28125 3.71875 L 28.28125 29.71875 L 29.71875 28.28125 L 24.84375 23.40625 C 26.197157 21.258167 27 18.72176 27 16 C 27 12.271 25.51 8.886 23.125 6.375 L 21.71875 7.78125 C 23.74275 9.92925 25 12.822 25 16 C 25 18.171168 24.421337 20.212654 23.40625 21.96875 L 21.9375 20.5 C 22.625181 19.150233 23 17.616246 23 16 C 23 13.374 21.9735 10.9735 20.3125 9.1875 L 18.90625 10.625 C 20.20625 12.048 21 13.925 21 16 C 21 17.052919 20.78112 18.04995 20.40625 18.96875 L 17 15.5625 L 17 4.59375 L 11.5 10.0625 L 3.71875 2.28125 z M 15 9.40625 L 15 13.5625 L 12.9375 11.5 L 15 9.40625 z M 6 11 L 6 21 L 10.59375 21 L 17 27.40625 L 17 20.8125 L 15 18.8125 L 15 22.59375 L 11.40625 19 L 8 19 L 8 13 L 9.1875 13 L 7.1875 11 L 6 11 z"/>
</svg>
